<?xml version="1.0" standalone="no"?><!DOCTYPE svg PUBLIC "-//W3C//DTD SVG 1.1//EN" "http://www.w3.org/Graphics/SVG/1.1/DTD/svg11.dtd"><svg t="1658367401625" class="icon" viewBox="0 0 1024 1024" version="1.1" xmlns="http://www.w3.org/2000/svg" p-id="3332" xmlns:xlink="http://www.w3.org/1999/xlink" width="128" height="128"><defs><style type="text/css"></style></defs><path d="M742.997333 0L1024 281.002667v161.450666a42.666667 42.666667 0 0 1-85.034667 4.992L938.666667 442.453333V341.333333h-128a128 128 0 0 1-127.786667-120.490666L682.666667 213.333333V85.333333H128a42.666667 42.666667 0 0 0-42.368 37.674667L85.333333 128v725.333333a85.333333 85.333333 0 0 0 78.933334 85.12L170.666667 938.666667h213.333333a42.666667 42.666667 0 0 1 4.992 85.034666L384 1024H170.666667a170.666667 170.666667 0 0 1-170.453334-162.133333L0 853.333333V128A128 128 0 0 1 120.490667 0.213333L128 0h614.997333zM725.333333 426.666667a298.666667 298.666667 0 1 1 0 597.333333 298.666667 298.666667 0 0 1 0-597.333333z m0 85.333333a213.333333 213.333333 0 1 0 0 426.666667 213.333333 213.333333 0 0 0 0-426.666667z m-0.426666 298.24a42.666667 42.666667 0 1 1 0 85.333333 42.666667 42.666667 0 0 1 0-85.333333zM725.333333 554.666667a42.666667 42.666667 0 0 1 42.666667 42.666666v128a42.666667 42.666667 0 0 1-85.333333 0v-128a42.666667 42.666667 0 0 1 42.666666-42.666666z m42.666667-408.96V213.333333a42.666667 42.666667 0 0 0 37.674667 42.368L810.666667 256h67.669333L768 145.706667z"  p-id="3333"></path></svg>